<?xml version="1.0" encoding="UTF-8"?>
<!DOCTYPE svg PUBLIC "-//W3C//DTD SVG 1.1//EN" "http://www.w3.org/Graphics/SVG/1.1/DTD/svg11.dtd">
<svg version="1.2" width="23.11mm" height="17.35mm" viewBox="180 379 2311 1735" preserveAspectRatio="xMidYMid" fill-rule="evenodd" stroke-width="28.222" stroke-linejoin="round" xmlns="http://www.w3.org/2000/svg" xmlns:ooo="http://xml.openoffice.org/svg/export" xmlns:xlink="http://www.w3.org/1999/xlink" xmlns:presentation="http://sun.com/xmlns/staroffice/presentation" xmlns:smil="http://www.w3.org/2001/SMIL20/" xmlns:anim="urn:oasis:names:tc:opendocument:xmlns:animation:1.0" xml:space="preserve">
 <defs class="EmbeddedBulletChars">
  <g id="bullet-char-template-57356" transform="scale(0.00048828125,-0.00048828125)">
   <path d="M 580,1141 L 1163,571 580,0 -4,571 580,1141 Z"/>
  </g>
  <g id="bullet-char-template-57354" transform="scale(0.00048828125,-0.00048828125)">
   <path d="M 8,1128 L 1137,1128 1137,0 8,0 8,1128 Z"/>
  </g>
  <g id="bullet-char-template-10146" transform="scale(0.00048828125,-0.00048828125)">
   <path d="M 174,0 L 602,739 174,1481 1456,739 174,0 Z M 1358,739 L 309,1346 659,739 1358,739 Z"/>
  </g>
  <g id="bullet-char-template-10132" transform="scale(0.00048828125,-0.00048828125)">
   <path d="M 2015,739 L 1276,0 717,0 1260,543 174,543 174,936 1260,936 717,1481 1274,1481 2015,739 Z"/>
  </g>
  <g id="bullet-char-template-10007" transform="scale(0.00048828125,-0.00048828125)">
   <path d="M 0,-2 C -7,14 -16,27 -25,37 L 356,567 C 262,823 215,952 215,954 215,979 228,992 255,992 264,992 276,990 289,987 310,991 331,999 354,1012 L 381,999 492,748 772,1049 836,1024 860,1049 C 881,1039 901,1025 922,1006 886,937 835,863 770,784 769,783 710,716 594,584 L 774,223 C 774,196 753,168 711,139 L 727,119 C 717,90 699,76 672,76 641,76 570,178 457,381 L 164,-76 C 142,-110 111,-127 72,-127 30,-127 9,-110 8,-76 1,-67 -2,-52 -2,-32 -2,-23 -1,-13 0,-2 Z"/>
  </g>
  <g id="bullet-char-template-10004" transform="scale(0.00048828125,-0.00048828125)">
   <path d="M 285,-33 C 182,-33 111,30 74,156 52,228 41,333 41,471 41,549 55,616 82,672 116,743 169,778 240,778 293,778 328,747 346,684 L 369,508 C 377,444 397,411 428,410 L 1163,1116 C 1174,1127 1196,1133 1229,1133 1271,1133 1292,1118 1292,1087 L 1292,965 C 1292,929 1282,901 1262,881 L 442,47 C 390,-6 338,-33 285,-33 Z"/>
  </g>
  <g id="bullet-char-template-9679" transform="scale(0.00048828125,-0.00048828125)">
   <path d="M 813,0 C 632,0 489,54 383,161 276,268 223,411 223,592 223,773 276,916 383,1023 489,1130 632,1184 813,1184 992,1184 1136,1130 1245,1023 1353,916 1407,772 1407,592 1407,412 1353,268 1245,161 1136,54 992,0 813,0 Z"/>
  </g>
  <g id="bullet-char-template-8226" transform="scale(0.00048828125,-0.00048828125)">
   <path d="M 346,457 C 273,457 209,483 155,535 101,586 74,649 74,723 74,796 101,859 155,911 209,963 273,989 346,989 419,989 480,963 531,910 582,859 608,796 608,723 608,648 583,586 532,535 482,483 420,457 346,457 Z"/>
  </g>
  <g id="bullet-char-template-8211" transform="scale(0.00048828125,-0.00048828125)">
   <path d="M -4,459 L 1135,459 1135,606 -4,606 -4,459 Z"/>
  </g>
  <g id="bullet-char-template-61548" transform="scale(0.00048828125,-0.00048828125)">
   <path d="M 173,740 C 173,903 231,1043 346,1159 462,1274 601,1332 765,1332 928,1332 1067,1274 1183,1159 1299,1043 1357,903 1357,740 1357,577 1299,437 1183,322 1067,206 928,148 765,148 601,148 462,206 346,322 231,437 173,577 173,740 Z"/>
  </g>
 </defs>
 <g class="Page">
  <g class="com.sun.star.drawing.ClosedBezierShape">
   <g id="id3">
    <rect class="BoundingBox" stroke="none" fill="none" x="581" y="785" width="1910" height="1329"/>
    <path fill="rgb(0,0,0)" stroke="none" d="M 2436,1915 L 2274,1915 C 2257,1915 2244,1901 2244,1884 L 2244,1797 C 2244,1780 2257,1766 2274,1766 L 2436,1766 C 2465,1766 2489,1744 2489,1717 2489,1690 2465,1667 2436,1667 L 2274,1667 C 2257,1667 2244,1655 2244,1638 L 2244,1569 2146,1569 C 2024,1569 1914,1641 1872,1747 1867,1759 1856,1766 1843,1766 1843,1766 1147,1766 1142,1766 927,1766 750,1602 731,1391 L 733,1391 C 731,1376 730,1361 730,1346 730,1340 730,1334 730,1328 731,1322 731,1316 732,1310 L 732,1310 C 750,1099 927,933 1143,933 1369,933 1555,1119 1555,1346 1555,1361 1554,1376 1552,1391 L 1700,1391 C 1701,1376 1702,1361 1702,1346 1702,1037 1451,786 1143,786 842,786 596,1024 583,1322 582,1333 582,1344 582,1354 582,1664 833,1914 1142,1914 1147,1914 1843,1915 1843,1915 1856,1915 1867,1922 1872,1934 1914,2041 2024,2112 2146,2112 L 2244,2112 2244,2044 C 2244,2027 2257,2014 2274,2014 L 2436,2014 C 2465,2014 2489,1991 2489,1964 2489,1937 2465,1915 2436,1915 Z"/>
   </g>
  </g>
  <g class="com.sun.star.drawing.ClosedBezierShape">
   <g id="id4">
    <rect class="BoundingBox" stroke="none" fill="none" x="439" y="1796" width="265" height="265"/>
    <path fill="rgb(0,0,0)" stroke="none" d="M 622,1796 C 601,1796 581,1805 565,1820 L 464,1922 C 449,1937 440,1957 440,1978 440,2000 449,2020 464,2036 494,2067 548,2066 578,2036 L 679,1934 C 694,1919 703,1899 703,1878 703,1856 695,1835 679,1820 665,1805 644,1796 622,1796 Z"/>
   </g>
  </g>
  <g class="com.sun.star.drawing.ClosedBezierShape">
   <g id="id5">
    <rect class="BoundingBox" stroke="none" fill="none" x="1067" y="379" width="164" height="307"/>
    <path fill="rgb(0,0,0)" stroke="none" d="M 1149,685 C 1193,685 1230,649 1230,605 L 1230,461 C 1230,417 1193,380 1149,380 1104,380 1068,417 1068,461 L 1068,605 C 1068,649 1104,685 1149,685 Z"/>
   </g>
  </g>
  <g class="com.sun.star.drawing.ClosedBezierShape">
   <g id="id6">
    <rect class="BoundingBox" stroke="none" fill="none" x="1593" y="640" width="265" height="264"/>
    <path fill="rgb(0,0,0)" stroke="none" d="M 1674,903 C 1695,903 1716,895 1731,880 L 1832,778 C 1864,747 1864,696 1832,664 1802,633 1749,634 1718,664 L 1617,766 C 1601,781 1593,801 1593,822 1593,844 1601,864 1616,879 1631,894 1652,903 1674,903 Z"/>
   </g>
  </g>
  <g class="com.sun.star.drawing.ClosedBezierShape">
   <g id="id7">
    <rect class="BoundingBox" stroke="none" fill="none" x="440" y="640" width="265" height="264"/>
    <path fill="rgb(0,0,0)" stroke="none" d="M 566,880 C 581,895 601,903 623,903 645,903 665,895 680,880 695,864 704,844 704,822 703,801 695,781 680,766 L 578,664 C 548,633 495,633 464,664 449,680 441,700 441,721 441,743 449,763 464,778 L 566,880 Z"/>
   </g>
  </g>
  <g class="com.sun.star.drawing.ClosedBezierShape">
   <g id="id8">
    <rect class="BoundingBox" stroke="none" fill="none" x="180" y="1267" width="307" height="164"/>
    <path fill="rgb(0,0,0)" stroke="none" d="M 486,1349 C 486,1304 450,1268 405,1268 L 261,1268 C 217,1268 181,1304 181,1349 181,1393 217,1430 261,1430 L 405,1430 C 450,1430 486,1393 486,1349 Z"/>
   </g>
  </g>
 </g>
</svg>