<?xml version="1.0" encoding="UTF-8"?>
<!DOCTYPE svg PUBLIC "-//W3C//DTD SVG 1.1//EN" "http://www.w3.org/Graphics/SVG/1.1/DTD/svg11.dtd">
<svg version="1.2" width="262.51mm" height="229.7mm" viewBox="0 1641 26251 22970" preserveAspectRatio="xMidYMid" fill-rule="evenodd" stroke-width="28.222" stroke-linejoin="round" xmlns="http://www.w3.org/2000/svg" xmlns:ooo="http://xml.openoffice.org/svg/export" xmlns:xlink="http://www.w3.org/1999/xlink" xmlns:presentation="http://sun.com/xmlns/staroffice/presentation" xmlns:smil="http://www.w3.org/2001/SMIL20/" xmlns:anim="urn:oasis:names:tc:opendocument:xmlns:animation:1.0" xml:space="preserve">
 <defs class="ClipPathGroup">
  <clipPath id="presentation_clip_path" clipPathUnits="userSpaceOnUse">
   <rect x="0" y="1641" width="26251" height="22970"/>
  </clipPath>
  <clipPath id="presentation_clip_path_shrink" clipPathUnits="userSpaceOnUse">
   <rect x="26" y="1663" width="26199" height="22925"/>
  </clipPath>
 </defs>
 <defs class="TextShapeIndex">
  <g ooo:slide="id1" ooo:id-list="id3 id4 id5 id6 id7 id8 id9"/>
 </defs>
 <defs class="EmbeddedBulletChars">
  <g id="bullet-char-template-57356" transform="scale(0.00048828125,-0.00048828125)">
   <path d="M 580,1141 L 1163,571 580,0 -4,571 580,1141 Z"/>
  </g>
  <g id="bullet-char-template-57354" transform="scale(0.00048828125,-0.00048828125)">
   <path d="M 8,1128 L 1137,1128 1137,0 8,0 8,1128 Z"/>
  </g>
  <g id="bullet-char-template-10146" transform="scale(0.00048828125,-0.00048828125)">
   <path d="M 174,0 L 602,739 174,1481 1456,739 174,0 Z M 1358,739 L 309,1346 659,739 1358,739 Z"/>
  </g>
  <g id="bullet-char-template-10132" transform="scale(0.00048828125,-0.00048828125)">
   <path d="M 2015,739 L 1276,0 717,0 1260,543 174,543 174,936 1260,936 717,1481 1274,1481 2015,739 Z"/>
  </g>
  <g id="bullet-char-template-10007" transform="scale(0.00048828125,-0.00048828125)">
   <path d="M 0,-2 C -7,14 -16,27 -25,37 L 356,567 C 262,823 215,952 215,954 215,979 228,992 255,992 264,992 276,990 289,987 310,991 331,999 354,1012 L 381,999 492,748 772,1049 836,1024 860,1049 C 881,1039 901,1025 922,1006 886,937 835,863 770,784 769,783 710,716 594,584 L 774,223 C 774,196 753,168 711,139 L 727,119 C 717,90 699,76 672,76 641,76 570,178 457,381 L 164,-76 C 142,-110 111,-127 72,-127 30,-127 9,-110 8,-76 1,-67 -2,-52 -2,-32 -2,-23 -1,-13 0,-2 Z"/>
  </g>
  <g id="bullet-char-template-10004" transform="scale(0.00048828125,-0.00048828125)">
   <path d="M 285,-33 C 182,-33 111,30 74,156 52,228 41,333 41,471 41,549 55,616 82,672 116,743 169,778 240,778 293,778 328,747 346,684 L 369,508 C 377,444 397,411 428,410 L 1163,1116 C 1174,1127 1196,1133 1229,1133 1271,1133 1292,1118 1292,1087 L 1292,965 C 1292,929 1282,901 1262,881 L 442,47 C 390,-6 338,-33 285,-33 Z"/>
  </g>
  <g id="bullet-char-template-9679" transform="scale(0.00048828125,-0.00048828125)">
   <path d="M 813,0 C 632,0 489,54 383,161 276,268 223,411 223,592 223,773 276,916 383,1023 489,1130 632,1184 813,1184 992,1184 1136,1130 1245,1023 1353,916 1407,772 1407,592 1407,412 1353,268 1245,161 1136,54 992,0 813,0 Z"/>
  </g>
  <g id="bullet-char-template-8226" transform="scale(0.00048828125,-0.00048828125)">
   <path d="M 346,457 C 273,457 209,483 155,535 101,586 74,649 74,723 74,796 101,859 155,911 209,963 273,989 346,989 419,989 480,963 531,910 582,859 608,796 608,723 608,648 583,586 532,535 482,483 420,457 346,457 Z"/>
  </g>
  <g id="bullet-char-template-8211" transform="scale(0.00048828125,-0.00048828125)">
   <path d="M -4,459 L 1135,459 1135,606 -4,606 -4,459 Z"/>
  </g>
  <g id="bullet-char-template-61548" transform="scale(0.00048828125,-0.00048828125)">
   <path d="M 173,740 C 173,903 231,1043 346,1159 462,1274 601,1332 765,1332 928,1332 1067,1274 1183,1159 1299,1043 1357,903 1357,740 1357,577 1299,437 1183,322 1067,206 928,148 765,148 601,148 462,206 346,322 231,437 173,577 173,740 Z"/>
  </g>
 </defs>
 <defs class="TextEmbeddedBitmaps"/>
 <g class="SlideGroup">
  <g>
   <g id="container-id1">
    <g id="id1" class="Slide" clip-path="url(#presentation_clip_path)">
     <g class="Page">
      <g class="com.sun.star.drawing.ClosedBezierShape">
       <g id="id3">
        <rect class="BoundingBox" stroke="none" fill="none" x="0" y="19688" width="26252" height="4924"/>
        <path fill="rgb(0,0,0)" stroke="none" d="M 25431,19688 L 16407,19688 C 16189,19688 15980,19775 15826,19928 L 13126,22630 10425,19929 C 10271,19775 10062,19688 9844,19688 L 820,19688 C 368,19688 0,20056 0,20508 0,20961 368,21329 820,21329 L 9505,21329 12546,24371 C 12705,24530 12915,24611 13126,24611 13336,24611 13546,24530 13706,24371 L 16746,21329 25431,21329 C 25883,21329 26251,20961 26251,20508 26251,20056 25883,19688 25431,19688 Z"/>
       </g>
      </g>
      <g class="com.sun.star.drawing.ClosedBezierShape">
       <g id="id4">
        <rect class="BoundingBox" stroke="none" fill="none" x="4922" y="6562" width="16408" height="13749"/>
        <path fill="rgb(0,0,0)" stroke="none" d="M 5613,18047 L 9844,18047 C 10500,18047 11119,18303 11585,18767 L 13126,20310 14666,18769 C 15132,18303 15751,18047 16407,18047 L 20639,18047 C 21077,17040 21329,15932 21329,14766 21329,10237 17654,6562 13126,6562 8597,6562 4922,10237 4922,14766 4922,15932 5175,17040 5613,18047 Z"/>
       </g>
      </g>
      <g class="com.sun.star.drawing.ClosedBezierShape">
       <g id="id5">
        <rect class="BoundingBox" stroke="none" fill="none" x="12305" y="1641" width="1643" height="3283"/>
        <path fill="rgb(0,0,0)" stroke="none" d="M 13126,4923 C 13579,4923 13947,4556 13947,4103 L 13947,2462 C 13947,2009 13579,1641 13126,1641 12673,1641 12305,2009 12305,2462 L 12305,4103 C 12305,4556 12673,4923 13126,4923 Z"/>
       </g>
      </g>
      <g class="com.sun.star.drawing.ClosedBezierShape">
       <g id="id6">
        <rect class="BoundingBox" stroke="none" fill="none" x="0" y="13945" width="3283" height="1643"/>
        <path fill="rgb(0,0,0)" stroke="none" d="M 821,15587 L 2462,15587 C 2915,15587 3282,15219 3282,14766 3282,14313 2915,13945 2462,13945 L 821,13945 C 368,13945 0,14313 0,14766 0,15219 368,15587 821,15587 Z"/>
       </g>
      </g>
      <g class="com.sun.star.drawing.ClosedBezierShape">
       <g id="id7">
        <rect class="BoundingBox" stroke="none" fill="none" x="22969" y="13945" width="3283" height="1643"/>
        <path fill="rgb(0,0,0)" stroke="none" d="M 23790,15587 L 25431,15587 C 25884,15587 26251,15219 26251,14766 26251,14313 25884,13945 25431,13945 L 23790,13945 C 23337,13945 22969,14313 22969,14766 22969,15219 23337,15587 23790,15587 Z"/>
       </g>
      </g>
      <g class="com.sun.star.drawing.ClosedBezierShape">
       <g id="id8">
        <rect class="BoundingBox" stroke="none" fill="none" x="3604" y="5245" width="2802" height="2801"/>
        <path fill="rgb(0,0,0)" stroke="none" d="M 5004,7805 C 5165,7966 5375,8045 5585,8045 5795,8045 6006,7966 6165,7805 6485,7485 6485,6965 6165,6645 L 5004,5486 C 4684,5166 4164,5166 3844,5486 3524,5806 3524,6326 3844,6646 L 5004,7805 Z"/>
       </g>
      </g>
      <g class="com.sun.star.drawing.ClosedBezierShape">
       <g id="id9">
        <rect class="BoundingBox" stroke="none" fill="none" x="19846" y="5246" width="2802" height="2801"/>
        <path fill="rgb(0,0,0)" stroke="none" d="M 20667,8046 C 20877,8046 21087,7966 21248,7807 L 22407,6646 C 22727,6326 22727,5806 22407,5486 22087,5166 21566,5166 21246,5486 L 20086,6645 C 19766,6965 19766,7485 20086,7805 20247,7966 20457,8046 20667,8046 Z"/>
       </g>
      </g>
     </g>
    </g>
   </g>
  </g>
 </g>
</svg>